<svg width="15" height="94" viewBox="0 0 15 94" fill="none" xmlns="http://www.w3.org/2000/svg">
<path d="M14.1701 7C14.1701 10.866 11.0361 14 7.17012 14C3.30413 14 0.170119 10.866 0.170119 7C0.170119 3.13401 3.30413 4.27514e-09 7.17012 4.27514e-09C11.0361 4.27514e-09 14.1701 3.13401 14.1701 7Z" fill="white"/>
<path d="M14.1701 59.9185C14.1701 63.7845 11.0361 66.9185 7.17012 66.9185C3.30413 66.9185 0.170119 63.7845 0.170119 59.9185C0.170119 56.0525 3.30413 52.9185 7.17012 52.9185C11.0361 52.9185 14.1701 56.0525 14.1701 59.9185Z" fill="white"/>
<path d="M14 86.9592C14 90.8252 10.866 93.9592 7 93.9592C3.13401 93.9592 0 90.8252 0 86.9592C0 83.0932 3.13401 79.9592 7 79.9592C10.866 79.9592 14 83.0932 14 86.9592Z" fill="white"/>
</svg>
