<svg width="20" height="20" viewBox="0 0 20 20" fill="none" xmlns="http://www.w3.org/2000/svg">
<path fill-rule="evenodd" clip-rule="evenodd" d="M19.5264 17.2397L15.6639 13.3772C16.8601 11.6121 17.3552 9.46443 17.0527 7.35378C16.7502 5.24312 15.6717 3.32106 14.0278 1.96302C12.384 0.604975 10.293 -0.0914929 8.16317 0.00965513C6.03335 0.110803 4.01772 1.0023 2.51001 2.51001C1.0023 4.01772 0.110803 6.03335 0.00965513 8.16317C-0.0914929 10.293 0.604975 12.384 1.96302 14.0278C3.32106 15.6717 5.24312 16.7502 7.35378 17.0527C9.46443 17.3552 11.6121 16.8601 13.3772 15.6639L17.2397 19.5264C17.5429 19.8296 17.9542 20 18.383 20C18.8119 20 19.2232 19.8296 19.5264 19.5264C19.8296 19.2232 20 18.8119 20 18.383C20 17.9542 19.8296 17.5429 19.5264 17.2397ZM8.56745 14.2865C7.43569 14.287 6.32923 13.9517 5.38802 13.3232C4.44682 12.6947 3.71316 11.8012 3.27985 10.7557C2.84655 9.71017 2.73306 8.55963 2.95374 7.4496C3.17443 6.33956 3.71938 5.31992 4.51965 4.51965C5.31992 3.71938 6.33956 3.17443 7.4496 2.95374C8.55963 2.73306 9.71017 2.84655 10.7557 3.27985C11.8012 3.71316 12.6947 4.44682 13.3232 5.38802C13.9517 6.32923 14.287 7.43569 14.2865 8.56745C14.2865 10.0842 13.684 11.5389 12.6114 12.6114C11.5389 13.684 10.0842 14.2865 8.56745 14.2865Z" fill="#EFE3C8" fill-opacity="0.5"/>
</svg>
