<svg width="16" height="16" viewBox="0 0 16 16" fill="none" xmlns="http://www.w3.org/2000/svg">
<path fill-rule="evenodd" clip-rule="evenodd" d="M8 2.5C4.96243 2.5 2.5 4.96243 2.5 8C2.5 11.0376 4.96243 13.5 8 13.5C11.0376 13.5 13.5 11.0376 13.5 8C13.5 4.96243 11.0376 2.5 8 2.5ZM1.5 8C1.5 4.41015 4.41015 1.5 8 1.5C11.5899 1.5 14.5 4.41015 14.5 8C14.5 11.5899 11.5899 14.5 8 14.5C4.41015 14.5 1.5 11.5899 1.5 8Z" fill="#7E7984"/>
<path d="M8 12C8.41421 12 8.75 11.6642 8.75 11.25C8.75 10.8358 8.41421 10.5 8 10.5C7.58579 10.5 7.25 10.8358 7.25 11.25C7.25 11.6642 7.58579 12 8 12Z" fill="#7E7984"/>
<path fill-rule="evenodd" clip-rule="evenodd" d="M7.13896 4.67127C7.5501 4.50097 8.0025 4.45642 8.43895 4.54323C8.87541 4.63005 9.27632 4.84434 9.59099 5.15901C9.90566 5.47368 10.12 5.87459 10.2068 6.31105C10.2936 6.74751 10.249 7.19991 10.0787 7.61104C9.90843 8.02217 9.62004 8.37357 9.25003 8.62081C9.02064 8.77408 8.76626 8.88306 8.5 8.94374V9C8.5 9.27614 8.27614 9.5 8 9.5C7.72386 9.5 7.5 9.27614 7.5 9V8.5C7.5 8.36739 7.55268 8.24022 7.64645 8.14645C7.74021 8.05268 7.86739 8 8 8C8.24723 8 8.4889 7.92669 8.69446 7.78934C8.90002 7.65199 9.06024 7.45676 9.15485 7.22836C9.24946 6.99995 9.27421 6.74861 9.22598 6.50614C9.17775 6.26366 9.0587 6.04093 8.88388 5.86612C8.70907 5.6913 8.48634 5.57225 8.24386 5.52402C8.00139 5.47579 7.75005 5.50054 7.52165 5.59515C7.29324 5.68976 7.09801 5.84998 6.96066 6.05554C6.82331 6.2611 6.75 6.50277 6.75 6.75C6.75 7.02614 6.52614 7.25 6.25 7.25C5.97386 7.25 5.75 7.02614 5.75 6.75C5.75 6.30499 5.88196 5.86998 6.12919 5.49997C6.37643 5.12996 6.72783 4.84157 7.13896 4.67127Z" fill="#7E7984"/>
</svg>
