<svg width="32" height="12" viewBox="0 0 32 12" fill="none" xmlns="http://www.w3.org/2000/svg">
<g clip-path="url(#clip0_512_152)">
<path d="M16.5496 4.11602C16.5314 5.55552 17.8325 6.35877 18.8126 6.8364C19.8196 7.3264 20.1579 7.64065 20.1539 8.0789C20.1464 8.74952 19.3506 9.04552 18.606 9.05702C17.3069 9.07715 16.5515 8.70627 15.951 8.42577L15.483 10.6156C16.0855 10.8933 17.2011 11.1354 18.358 11.146C21.0736 11.146 22.8503 9.80552 22.8599 7.72715C22.8705 5.0894 19.2114 4.9434 19.2364 3.7644C19.245 3.4069 19.5861 3.0254 20.3336 2.9284C20.7036 2.8794 21.725 2.8419 22.883 3.37515L23.3375 1.2564C22.7148 1.02965 21.9144 0.812523 20.9179 0.812523C18.3619 0.812523 16.5641 2.17127 16.5496 4.11602ZM27.7048 0.995023C27.2089 0.995023 26.791 1.28427 26.6045 1.72815L22.7254 10.9904H25.439L25.979 9.49802H29.295L29.6082 10.9904H32L29.9129 0.995023H27.7048ZM28.0844 3.69515L28.8675 7.44852H26.7227L28.0844 3.69515ZM13.2595 0.995148L11.1205 10.9903H13.7064L15.8444 0.994898H13.2595M9.43412 0.994898L6.74263 7.79827L5.65387 2.01365C5.52612 1.3679 5.02163 0.995023 4.46138 0.995023H0.061625L0 1.28527C0.90325 1.48127 1.9295 1.7974 2.55125 2.13565C2.93175 2.34227 3.04025 2.5229 3.16525 3.0139L5.22738 10.9904H7.96L12.1495 0.995023H9.43412" fill="url(#paint0_linear_512_152)"/>
</g>
<defs>
<linearGradient id="paint0_linear_512_152" x1="14.7117" y1="11.3533" x2="15.0108" y2="0.740657" gradientUnits="userSpaceOnUse">
<stop stop-color="#222357"/>
<stop offset="1" stop-color="#254AA5"/>
</linearGradient>
<clipPath id="clip0_512_152">
<rect width="32" height="10.375" fill="white" transform="translate(0 0.8125)"/>
</clipPath>
</defs>
</svg>
