<svg width="343" height="40" viewBox="0 0 343 40" fill="none" xmlns="http://www.w3.org/2000/svg">
<path fill-rule="evenodd" clip-rule="evenodd" d="M0 0.999999C0 0.447714 0.447715 0 1 0H342C342.552 0 343 0.447715 343 1V10.4606C341.478 10.9393 340.078 11.7799 338.929 12.9289C337.054 14.8043 336 17.3478 336 20C336 22.6522 337.054 25.1957 338.929 27.0711C340.078 28.2201 341.478 29.0607 343 29.5394V39C343 39.5523 342.552 40 342 40H0.999997C0.447712 40 0 39.5523 0 39V29.5394C1.52206 29.0607 2.92199 28.2201 4.07107 27.0711C5.94643 25.1957 7 22.6522 7 20C7 17.3478 5.94643 14.8043 4.07107 12.9289C2.92199 11.7799 1.52206 10.9393 0 10.4606V0.999999Z" fill="#233837"/>
</svg>
